<svg xmlns="http://www.w3.org/2000/svg" viewBox="0 0 750 500"><g id="freepik--character-1--inject-55"><path d="M224.16,240.07c-.17,3.21-4.35,7.49-3.06,10.43,2.38,5.42,1,11.91-2.08,17s-7.69,9-12.22,12.78a102.34,102.34,0,0,0-2.05-23.55c-.5-2.42-1.32-5.12-3.53-6.22-2.87-1.42-6.51.63-9.45-.63-3.13-1.36-3.76-5.64-6.4-7.8-2.39-1.95-5.9-1.74-8.83-.76s-5.62,2.63-8.63,3.3-6.64.07-8.31-2.53c-1-1.6-.29-.62-1.27-2.25,0,0-5.87.2-7.89-6.63,0,0-2.76-7.59,3.35-10.94,0,0,1.39-13.72,15.18-7.55,4,1.78,8.66-3.94,12.53-2,3.22,1.63,4.17,6.11,7.39,7.75,3.7,1.88,8-.92,12.14-1.09a10,10,0,0,1,10,10s.65-2.74,5.14-1.54S224.48,233.81,224.16,240.07Z" style="fill:#263238"></path><path d="M218.31,262.15a9.7,9.7,0,0,0-.84-4.52c-.58-1.17-2.75-3.83-5.13-4l.35-14.13a5.63,5.63,0,0,0-5-5.7L180,230.88a16.87,16.87,0,0,0-18.61,15.72c-.67,10.65-1.07,23.68.19,31.62,2.54,16,14.78,18,14.78,18l-.3,11.16c-.47,11.89,8.43,19.05,17.61,19.05s17.66-7.93,17.39-19.7l.9-36a6.3,6.3,0,0,0,4.05-2A10.11,10.11,0,0,0,218.31,262.15Z" style="fill:#ffbe9d"></path><path d="M167.53,255.27a2.06,2.06,0,0,0,2,2.07,2,2,0,0,0,2.11-1.85,2,2,0,0,0-2-2.07A2,2,0,0,0,167.53,255.27Z" style="fill:#263238"></path><path d="M164.17,253.38c.25.27,1.8-.88,4-.88s3.82,1.11,4.06.84c.11-.12-.15-.6-.85-1.11a5.6,5.6,0,0,0-3.25-1,5.32,5.32,0,0,0-3.19,1C164.27,252.78,164,253.26,164.17,253.38Z" style="fill:#263238"></path><path d="M188.81,255.68a2.05,2.05,0,0,0,2,2.07,2,2,0,0,0,2.11-1.85,2.05,2.05,0,0,0-2-2.07A2,2,0,0,0,188.81,255.68Z" style="fill:#263238"></path><path d="M185.84,253.79c.25.27,1.8-.88,4-.87s3.82,1.1,4.06.83c.11-.12-.14-.6-.85-1.11a5.6,5.6,0,0,0-3.25-1,5.39,5.39,0,0,0-3.19,1C185.94,253.19,185.71,253.67,185.84,253.79Z" style="fill:#263238"></path><path d="M177.83,270.14a15.15,15.15,0,0,0-3.58-.65c-.56-.05-1.09-.17-1.19-.55a2.93,2.93,0,0,1,.38-1.67L175.1,263c2.32-6.11,4-11.13,3.74-11.22s-2.32,4.78-4.63,10.89c-.56,1.5-1.09,2.94-1.59,4.31a3.27,3.27,0,0,0-.3,2.21,1.42,1.42,0,0,0,.93.82,4,4,0,0,0,1,.14A13.82,13.82,0,0,0,177.83,270.14Z" style="fill:#263238"></path><path d="M176.31,296.23a40.68,40.68,0,0,0,21.4-5.71s-5.54,12-21.53,10.53Z" style="fill:#eb996e"></path><path d="M184.84,249.93c.22.6,2.42.32,5,.63s4.68,1,5,.48c.15-.26-.21-.82-1.05-1.4a8.48,8.48,0,0,0-3.73-1.31,8.4,8.4,0,0,0-3.91.46C185.23,249.18,184.75,249.65,184.84,249.93Z" style="fill:#263238"></path><path d="M163.81,248.25c.39.5,1.9,0,3.73,0s3.37.33,3.73-.19c.16-.26-.09-.76-.76-1.23a5.41,5.41,0,0,0-6,.19C163.85,247.49,163.64,248,163.81,248.25Z" style="fill:#263238"></path><path d="M178.32,282.62c0-.05.15-.32.6-.6a3.87,3.87,0,0,1,2-.54,3.92,3.92,0,0,1,2,.52c.45.28.65.54.61.59a9.7,9.7,0,0,0-2.58-.58A8.86,8.86,0,0,0,178.32,282.62Z" style="fill:#eb996e"></path><path d="M210.87,266.4a12.84,12.84,0,0,0,1.52-.74,4.1,4.1,0,0,0,1.85-3.28,4.19,4.19,0,0,0-1.66-3.41,3.51,3.51,0,0,0-1.52-.59c-.05-.06.74-.33,1.73.28a4.33,4.33,0,0,1,2,3.72,4.11,4.11,0,0,1-.74,2.29,4.27,4.27,0,0,1-1.44,1.31A2.49,2.49,0,0,1,210.87,266.4Z" style="fill:#eb996e"></path><path d="M158.33,227.07c-2.58,6.9,3.55,11.9,8.33,13,6.68,1.56,13.78-2.66,18.35-.87,3.41,1.34,6.63,4,10.25,3.45,1.76-.26,3.5-1.27,5.21-.81,2.19.6,3.08,3.26,3,5.53-.06,2.8-1,5.58-.65,8.36s2.83,5.65,5.54,4.91a6.66,6.66,0,0,0,4.54-6c.32-3.85-.39-8.43-.2-12.29.17-3.4.18-7.14-2-9.77s-5.86-3.34-9.25-3.8a257.38,257.38,0,0,0-43.16-2.28" style="fill:#263238"></path><path d="M149.92,228.54a2.22,2.22,0,0,1-.14-.72,4.24,4.24,0,0,1,.42-2.07,4.66,4.66,0,0,1,2.41-2.29,4.19,4.19,0,0,1,2.1-.23c.75.07,1.5.27,2.29.31a4.49,4.49,0,0,0,2.36-.52,11.36,11.36,0,0,0,2.19-1.59c.72-.62,1.45-1.3,2.29-1.91a7.45,7.45,0,0,1,2.94-1.29,10.85,10.85,0,0,1,6.69,1.14,31.47,31.47,0,0,1,5.92,4.23,23.18,23.18,0,0,0,5.91,4,6.81,6.81,0,0,0,3.25.5,9.28,9.28,0,0,0,3-1,28.17,28.17,0,0,1,5.56-2.56,11,11,0,0,1,5.36-.17,8.27,8.27,0,0,1,3.89,2.09,7.86,7.86,0,0,1,1.85,2.78,6.12,6.12,0,0,1,.41,2.07,3.82,3.82,0,0,1,0,.55q0,.18,0,.18a7.65,7.65,0,0,0-.54-2.72,7.76,7.76,0,0,0-1.86-2.65,8,8,0,0,0-3.77-1.94,10.74,10.74,0,0,0-5.16.22,28.27,28.27,0,0,0-5.47,2.58,9.42,9.42,0,0,1-3.2,1,7.26,7.26,0,0,1-3.49-.51,23.78,23.78,0,0,1-6.05-4.06,31.25,31.25,0,0,0-5.82-4.17,10.43,10.43,0,0,0-6.37-1.13c-2.09.35-3.6,1.82-5,3.06a11.72,11.72,0,0,1-2.29,1.61,4.94,4.94,0,0,1-2.57.54c-.83-.06-1.58-.27-2.3-.36a4.09,4.09,0,0,0-2,.18,4.52,4.52,0,0,0-2.33,2.11,4.35,4.35,0,0,0-.5,2C149.88,228.29,150,228.53,149.92,228.54Z" style="fill:#455a64"></path><path d="M157.65,239.66a1.3,1.3,0,0,1-.7,0,2.41,2.41,0,0,1-1.62-1.16,4.74,4.74,0,0,1-.38-3.14,9.06,9.06,0,0,1,1.64-3.87,8.68,8.68,0,0,1,4.07-3.06,9,9,0,0,1,5.83-.15,20.43,20.43,0,0,1,5.61,3.18,19.6,19.6,0,0,0,5.89,3.3,11.07,11.07,0,0,0,6.6-.36,31.55,31.55,0,0,0,5.73-2.73,51.46,51.46,0,0,1,5.15-2.71,14.62,14.62,0,0,1,4.92-1.27,9.14,9.14,0,0,1,6.85,2.3,6.09,6.09,0,0,1,1.18,1.62,2.81,2.81,0,0,1,.24.66,7.46,7.46,0,0,0-1.55-2.13,9.12,9.12,0,0,0-6.69-2.09,14.3,14.3,0,0,0-4.78,1.31,50.16,50.16,0,0,0-5.08,2.73,31.9,31.9,0,0,1-5.81,2.79,11.57,11.57,0,0,1-6.91.38,20.2,20.2,0,0,1-6-3.38,20.16,20.16,0,0,0-5.45-3.14,8.68,8.68,0,0,0-5.55.09,8.47,8.47,0,0,0-3.92,2.88,8.73,8.73,0,0,0-1.64,3.7,4.52,4.52,0,0,0,.27,3A2.36,2.36,0,0,0,157,239.6,3.82,3.82,0,0,0,157.65,239.66Z" style="fill:#455a64"></path><path d="M218.89,266.31s.36-.48.89-1.4a9.57,9.57,0,0,0,1.19-4.28,8.9,8.9,0,0,0-.38-3,11.38,11.38,0,0,0-1.6-3.14c-.7-1-1.53-2.1-2.26-3.3a7.68,7.68,0,0,1-1.31-4.16,10.21,10.21,0,0,1,1.34-4.15,8.83,8.83,0,0,0,1.12-3.68,6.29,6.29,0,0,0-2.95-5.49,6.54,6.54,0,0,0-4.29-.84,13.37,13.37,0,0,0-1.6.39,1.57,1.57,0,0,1,.37-.22,5.78,5.78,0,0,1,1.2-.37,6.52,6.52,0,0,1,4.5.72,6.63,6.63,0,0,1,3.25,5.82,9.33,9.33,0,0,1-1.14,3.89,9.78,9.78,0,0,0-1.28,3.94,7.17,7.17,0,0,0,1.23,3.89c.7,1.16,1.52,2.22,2.22,3.29a11.83,11.83,0,0,1,1.62,3.29,9.15,9.15,0,0,1,.33,3.18A9.3,9.3,0,0,1,220,265a6.54,6.54,0,0,1-.75,1C219,266.22,218.9,266.32,218.89,266.31Z" style="fill:#455a64"></path><path d="M177,254.64a22.18,22.18,0,0,0-.42-2.49,10.15,10.15,0,0,0-13.29-7,10.24,10.24,0,0,0-4.65,3.51,10,10,0,0,0,0,11.85,9.17,9.17,0,0,0,2.12,2.14,9.3,9.3,0,0,0,2.53,1.37,10.08,10.08,0,0,0,9.54-1.4,10.3,10.3,0,0,0,3.75-5.55,22.71,22.71,0,0,0,.42-2.48,7.94,7.94,0,0,1-.22,2.53A10.25,10.25,0,0,1,173,263a10.43,10.43,0,0,1-9.92,1.56,9.69,9.69,0,0,1-2.67-1.42,10,10,0,0,1-2.23-2.23,10.45,10.45,0,0,1,0-12.46,10.56,10.56,0,0,1,4.9-3.66,10.54,10.54,0,0,1,5.52-.43,10.41,10.41,0,0,1,8.13,7.78A8,8,0,0,1,177,254.64Z" style="fill:#263238"></path><path d="M200.44,254.64a19.57,19.57,0,0,0-.42-2.49,10.14,10.14,0,0,0-13.28-7,10.2,10.2,0,0,0-4.66,3.51,10,10,0,0,0,0,11.85,9.36,9.36,0,0,0,2.12,2.14,9.5,9.5,0,0,0,2.54,1.37A10.15,10.15,0,0,0,200,257.12a20,20,0,0,0,.42-2.48,7.59,7.59,0,0,1-.22,2.53A10.22,10.22,0,0,1,196.5,263a10.43,10.43,0,0,1-9.92,1.56,9.69,9.69,0,0,1-2.67-1.42,10.08,10.08,0,0,1-2.24-2.23,10.49,10.49,0,0,1,0-12.46,10.66,10.66,0,0,1,4.91-3.66,10.54,10.54,0,0,1,5.52-.43,10.42,10.42,0,0,1,8.12,7.78A7.65,7.65,0,0,1,200.44,254.64Z" style="fill:#263238"></path><path d="M180.44,252.92a0,0,0,0,1,0,0h0v.1h0l0,0h0v-.18h0v.2a6.81,6.81,0,0,1-1.68.16c-1,0-1.83-.12-1.83-.26s.82-.26,1.83-.26a6.34,6.34,0,0,1,1.68.16v.2h0v-.18h0l0,0h0v.1h0A0,0,0,0,1,180.44,252.92Z" style="fill:#263238"></path><path d="M212.79,255.18a37.25,37.25,0,0,1-6.3-.19,37.55,37.55,0,0,1-6.26-.71,39.94,39.94,0,0,1,6.3.19A38.86,38.86,0,0,1,212.79,255.18Z" style="fill:#263238"></path><path d="M187,269.59a2.71,2.71,0,0,1,.07,1.61,5.51,5.51,0,0,1-5.66,4.63,2.7,2.7,0,0,1-1.57-.39c0-.08.62.08,1.57,0a5.65,5.65,0,0,0,5.3-4.33C187,270.2,186.94,269.59,187,269.59Z" style="fill:#263238"></path><path d="M147.39,341.38a1.34,1.34,0,0,1,0,.32l0,.94c0,.86,0,2.08.05,3.62,0,3.17,0,7.7.07,13.29,0,11.22-.34,26.72-1.21,43.82s-1.77,32.55-2.38,43.79c-.28,5.57-.51,10.1-.67,13.27q-.12,2.31-.18,3.6c0,.39-.05.7-.06.94a1.64,1.64,0,0,1,0,.32,1.14,1.14,0,0,1,0-.32c0-.24,0-.55,0-.94,0-.86.05-2.07.09-3.61.09-3.14.25-7.68.5-13.28.47-11.21,1.38-26.69,2.23-43.79s1.31-32.59,1.37-43.81c0-5.58.07-10.11.09-13.28,0-1.54,0-2.76.05-3.62l0-.94A1.34,1.34,0,0,1,147.39,341.38Z" style="fill:#263238"></path><path d="M244,324.16c-5.38-6.21-15.89-7.12-20.55-3.75s-7.25,9.09-7.72,14.82,1,11.48,3.18,16.79c3.51,8.52,8.7,15.42,16.45,24.2l20,26.22-38.55,37.64,16,25.21,32.77-26.4,27.1-28.72" style="fill:#263238"></path><path d="M104.61,405a6.28,6.28,0,0,1,2.08-1,14.72,14.72,0,0,1,5.51-.75,14.89,14.89,0,0,1,5.41,1.34,6.22,6.22,0,0,1,2,1.22c0,.07-.8-.37-2.1-.88a17.06,17.06,0,0,0-5.29-1.16,17.37,17.37,0,0,0-5.38.58C105.45,404.72,104.65,405.08,104.61,405Z" style="fill:#263238"></path><path d="M249.19,330.05l0,0c-13.45-17.84-27.93-16.37-35.31-16.58v-7.83c-5.45,0-12.9,4.91-16.75,8.42l-3.81,5.23h0a19.42,19.42,0,0,0-12.44-12.21,38.42,38.42,0,0,0-6.37-1.44v7c-18.08.51-27.75,5.45-39.83,19.43-.62.72-1.85,1.95-3.26,3.34h0l-35.74,42c-7.3,8.08-14,19.2-12.43,30h0c1.71,12.16,8.8,20.16,22.37,29.33l37.6,24.37-.18,4.19h89.73s60.85-44.89,62.34-61.52C296.27,390.64,275.31,362.79,249.19,330.05ZM144.73,425.36l-26.31-19.63,28.42-29.41Zm86.16,1.56-.71-14.53L234,374.22c7.5,8.6,21.38,25.67,21.38,28.22Z" style="fill:#263238"></path><path d="M213.86,313.51a7.64,7.64,0,0,1-.68,1.19c-.48.74-1.17,1.81-2.08,3.1a70.81,70.81,0,0,1-7.87,9.48c-.85.86-1.71,1.67-2.55,2.44l-.42.39v-.57a12.71,12.71,0,0,0-3.68-8.76,5.45,5.45,0,0,0-2.29-1.62,1.43,1.43,0,0,0-1,.17,1,1,0,0,1,1-.35,5.2,5.2,0,0,1,2.49,1.56,12.75,12.75,0,0,1,2.64,3.58,12.88,12.88,0,0,1,1.32,5.41l-.42-.19c.82-.77,1.68-1.57,2.52-2.43a85.81,85.81,0,0,0,7.95-9.32l2.2-3A6.82,6.82,0,0,1,213.86,313.51Z" style="fill:#263238"></path><path d="M174.49,312.68a5.69,5.69,0,0,1,.78.93l2,2.63c1.67,2.24,3.93,5.36,6.41,8.82l1.62,2.26-.45.07a21.62,21.62,0,0,1,2-4.63,7.9,7.9,0,0,1,2.89-2.85,5.36,5.36,0,0,1,2.59-.72,2.12,2.12,0,0,1,1,.14s-.34,0-1,0a5.67,5.67,0,0,0-2.43.83,8,8,0,0,0-2.68,2.8,22.56,22.56,0,0,0-1.92,4.55l-.16.47-.29-.4-1.62-2.26c-2.48-3.46-4.7-6.61-6.29-8.9-.73-1.09-1.35-2-1.85-2.73A5.4,5.4,0,0,1,174.49,312.68Z" style="fill:#263238"></path><g style="opacity:0.1"><path d="M193.3,319.33a15.4,15.4,0,0,1,3.91,12.27c-.19,1.46-.36,3.41,1,3.95.95.37,2-.28,2.77-.92a54.41,54.41,0,0,0,14.1-17.2,3.28,3.28,0,0,0,.52-1.75,1.2,1.2,0,0,0-1.17-1.17,1.76,1.76,0,0,0-1,.73c-4.16,4.8-8.76,9.79-12.92,14.58a10.62,10.62,0,0,0-2.31-7.39c-1.65-2-3.45-4.07-4.87-3.1"></path></g><path d="M231.67,463.62a2.53,2.53,0,0,1-.31-.42c-.22-.32-.49-.74-.84-1.26l-3.07-4.76c-2.61-4.14-6.26-9.91-10.51-16.62l-.1-.17.14-.13,9.38-9.36,20.41-20.2c2.6-2.54,4.72-4.6,6.22-6.08l1.72-1.63a5.46,5.46,0,0,1,.62-.55,4.57,4.57,0,0,1-.55.62c-.41.43-1,1-1.64,1.71L247,411l-20.31,20.31c-3.3,3.29-6.48,6.44-9.39,9.33l0-.3c4.18,6.75,7.78,12.55,10.35,16.72,1.24,2,2.24,3.66,2.95,4.84.32.53.57,1,.77,1.3A2.31,2.31,0,0,1,231.67,463.62Z" style="fill:#263238"></path><path d="M220.64,323.65l-.15.19-.46.54c-.43.46-1,1.18-1.72,2.12a21.22,21.22,0,0,0-3.83,9.13,26.23,26.23,0,0,0,2.23,14.43,34.07,34.07,0,0,0,4.4,7.53C223,360,225,362.41,227.05,365c8.07,10.17,15,19.64,20.1,26.44l6,8.07c.69.92,1.23,1.66,1.63,2.2l.41.58.13.2s-.07-.05-.17-.17l-.45-.55L253,399.58c-1.47-1.87-3.57-4.59-6.15-8-5.16-6.74-12.15-16.18-20.2-26.33-2-2.55-4-5-5.94-7.37a34.56,34.56,0,0,1-4.44-7.66,26.35,26.35,0,0,1-2.15-14.68A21.28,21.28,0,0,1,220,324.31l.5-.5C220.57,323.7,220.63,323.64,220.64,323.65Z" style="fill:#263238"></path><path d="M254.37,336.56c0,.05-.55.24-1.49.74a14.85,14.85,0,0,0-3.55,2.73,29.41,29.41,0,0,0-4,5.34,81.78,81.78,0,0,1-4.47,7,17,17,0,0,1-13,6.92,15.88,15.88,0,0,1-4.55-.43,9.78,9.78,0,0,1-1.19-.35,2.59,2.59,0,0,1-.4-.17,21.8,21.8,0,0,0,6.12.58,17.22,17.22,0,0,0,6.39-1.71,17,17,0,0,0,6.18-5.16c1.77-2.3,3.11-4.76,4.47-6.9a28.16,28.16,0,0,1,4.15-5.35,13.94,13.94,0,0,1,3.72-2.66,9.26,9.26,0,0,1,1.16-.45A1.77,1.77,0,0,1,254.37,336.56Z" style="fill:#fafafa"></path><path d="M230.52,424.49l-.24,0-.67-.16c-.3-.08-.67-.13-1.11-.2a14.34,14.34,0,0,0-1.52-.17,28.17,28.17,0,0,0-9.65,1.24,48.26,48.26,0,0,0-6.35,2.32c-2.22,1-4.52,2.22-7,3.39a45.73,45.73,0,0,1-8.08,3.06,24.16,24.16,0,0,1-4.54.72,19.89,19.89,0,0,1-4.73-.34,27.75,27.75,0,0,1-8.59-3.54c-2.58-1.54-4.89-3.29-7.1-4.91-4.37-3.28-8.55-6-12.52-7.18a20.16,20.16,0,0,0-5.47-.9,15.33,15.33,0,0,0-4.15.49,16.78,16.78,0,0,0-3.32,1.33l.19-.14.6-.36a11.85,11.85,0,0,1,2.48-1,15.31,15.31,0,0,1,4.21-.58,20.16,20.16,0,0,1,5.56.83c4.06,1.15,8.31,3.89,12.7,7.15,2.22,1.62,4.53,3.34,7.08,4.86a27.22,27.22,0,0,0,8.43,3.47,18.81,18.81,0,0,0,4.6.33,23.22,23.22,0,0,0,4.44-.69,45.78,45.78,0,0,0,8-3c2.48-1.16,4.79-2.38,7-3.35a47.12,47.12,0,0,1,6.42-2.28,27.33,27.33,0,0,1,9.76-1.09A13.09,13.09,0,0,1,230.52,424.49Z" style="fill:#fafafa"></path><path d="M131.67,415.61s.05.12.08.35a7.37,7.37,0,0,1,.12,1,15.07,15.07,0,0,1-.16,3.71,12.29,12.29,0,0,1-2.08,5.12,15.84,15.84,0,0,1-5.13,4.39c-2,1.23-4.07,2.26-5.72,3.46a15.69,15.69,0,0,0-3.86,3.73,6.21,6.21,0,0,0-1.15,3.36c0,.86.13,1.33.07,1.34a1,1,0,0,1-.12-.33,5.19,5.19,0,0,1-.16-1,6.17,6.17,0,0,1,1-3.57,15.31,15.31,0,0,1,3.89-3.92c1.68-1.25,3.71-2.3,5.73-3.51a16,16,0,0,0,5-4.23,12.39,12.39,0,0,0,2.11-4.9,18.15,18.15,0,0,0,.32-3.64A9.57,9.57,0,0,1,131.67,415.61Z" style="fill:#fafafa"></path><path d="M282.58,374.22a22.67,22.67,0,0,0-5.93,1.86,17.68,17.68,0,0,0-5.33,4,16.38,16.38,0,0,0-2.26,3.24c-.66,1.21-1.11,2.58-1.76,3.93a9.68,9.68,0,0,1-2.63,3.52,11.79,11.79,0,0,1-3.58,2,17.51,17.51,0,0,1-6.8.84,40.3,40.3,0,0,1-4.58-.54,10.76,10.76,0,0,1-1.65-.35,9.85,9.85,0,0,1,1.68.15c1.08.11,2.63.32,4.56.37a17.72,17.72,0,0,0,6.63-.93,9.79,9.79,0,0,0,5.9-5.27c.63-1.32,1.09-2.7,1.78-3.95A16.33,16.33,0,0,1,271,379.8a17.55,17.55,0,0,1,5.53-4.06,16.61,16.61,0,0,1,4.4-1.38,12.35,12.35,0,0,1,1.25-.14A1.23,1.23,0,0,1,282.58,374.22Z" style="fill:#fafafa"></path><path d="M232.88,382.66l-.23.07-.68.15c-.6.13-1.49.29-2.65.47a60.25,60.25,0,0,1-9.87.7A45.74,45.74,0,0,1,205,381.6a48,48,0,0,1-7.86-3.69,57,57,0,0,0-8.3-4.05,19,19,0,0,0-4.52-1,18.13,18.13,0,0,0-4.49.22,29.25,29.25,0,0,0-8,2.9c-4.85,2.57-8.93,5.43-12.62,7.42A30.46,30.46,0,0,1,150,387a13,13,0,0,1-2.67.29l-.7,0a.87.87,0,0,1-.24,0l.24,0,.69-.08a15.19,15.19,0,0,0,2.64-.39,31.7,31.7,0,0,0,9.07-3.71c3.63-2,7.69-4.91,12.57-7.53a29.4,29.4,0,0,1,8.17-3,18.69,18.69,0,0,1,4.62-.24,19.32,19.32,0,0,1,4.65,1.05,56.08,56.08,0,0,1,8.37,4.1,50.11,50.11,0,0,0,7.78,3.68,46.14,46.14,0,0,0,14.29,2.53,64.87,64.87,0,0,0,9.83-.53c1.16-.15,2.05-.28,2.66-.38l.69-.09A.87.87,0,0,1,232.88,382.66Z" style="fill:#fafafa"></path><path d="M135.13,388.44a3.42,3.42,0,0,0-.06-1.54,4.43,4.43,0,0,0-3.14-2.57c-.87-.26-1.86-.41-2.92-.65a7.23,7.23,0,0,1-3.21-1.47,8.52,8.52,0,0,1-2.22-3.2,25.42,25.42,0,0,1-1.15-4,21.9,21.9,0,0,0-1.14-3.88,14.44,14.44,0,0,0-1.87-3.24,14.21,14.21,0,0,0-4.83-4.07,15.06,15.06,0,0,0-4-1.42c-1-.2-1.57-.24-1.57-.29a1.07,1.07,0,0,1,.42,0,9.64,9.64,0,0,1,1.18.11,13.7,13.7,0,0,1,4.19,1.29,14.22,14.22,0,0,1,5,4.11,14.53,14.53,0,0,1,2,3.33,22.25,22.25,0,0,1,1.18,4,25.17,25.17,0,0,0,1.11,3.89,8.15,8.15,0,0,0,2.06,3,6.81,6.81,0,0,0,3,1.42c1,.26,2,.43,2.93.72a4.59,4.59,0,0,1,3.23,2.86,2.44,2.44,0,0,1,0,1.21A1,1,0,0,1,135.13,388.44Z" style="fill:#fafafa"></path><path d="M214.11,337.15a13.38,13.38,0,0,0-2.94-1.19,9.13,9.13,0,0,0-3.68,0,19,19,0,0,0-4.67,1.57c-1.67.75-3.43,1.73-5.35,2.74a30.49,30.49,0,0,1-6.43,2.67,18.68,18.68,0,0,1-7.69.25,29.94,29.94,0,0,1-7.84-2.59c-5.11-2.49-9.36-5.83-13.46-8.43a36,36,0,0,0-11.65-5.33,18.92,18.92,0,0,0-8.59-.1,30.42,30.42,0,0,0-3,1,11.94,11.94,0,0,1,3-1.19,18.51,18.51,0,0,1,8.72-.06,35.76,35.76,0,0,1,11.83,5.28c4.14,2.59,8.39,5.92,13.42,8.37a29.79,29.79,0,0,0,7.7,2.56,18.4,18.4,0,0,0,7.49-.22,29.91,29.91,0,0,0,6.35-2.58c1.92-1,3.7-2,5.4-2.7a19.65,19.65,0,0,1,4.77-1.52,9.27,9.27,0,0,1,3.78.14,9.51,9.51,0,0,1,2.2.92A7,7,0,0,1,214.11,337.15Z" style="fill:#fafafa"></path><path d="M208.46,464.11l2.78,1.39,16,0,3.23-2.64L218.83,443.6c-1.43.63-7.71,1.61-9.74,2.32a16.29,16.29,0,0,1-5.45.92,29.65,29.65,0,0,1-6.17-.51l-.44-.14a2.21,2.21,0,0,0-.86-.18c-1.73-.15-3.1,1.66-2.13,3.09s5.7,3.34,11.74,3.17h.29c5.3,0,.44,4.44-2.71,7.08a4.18,4.18,0,0,0-1.52,3.79,1.78,1.78,0,0,0,.71,1.3C203.89,465.29,208.46,464.11,208.46,464.11Z" style="fill:#ffbe9d"></path><path d="M143.17,461.72a1.23,1.23,0,0,1,0-.28c0-.22,0-.49,0-.83,0-.77.06-1.84.11-3.19.12-2.8.28-6.79.49-11.71.41-9.92,1-23.56,1.61-38.63s1-28.76,1.28-38.65c.11-4.92.19-8.91.25-11.72,0-1.35.05-2.42.07-3.19,0-.34,0-.61,0-.82a1.11,1.11,0,0,1,0-.29.94.94,0,0,1,0,.29c0,.21,0,.49,0,.82,0,.77,0,1.84,0,3.19,0,2.77,0,6.77-.08,11.72-.14,9.9-.54,23.57-1.13,38.67s-1.24,28.75-1.76,38.63c-.28,4.91-.5,8.9-.66,11.7-.09,1.35-.16,2.42-.21,3.18l-.07.83A1.33,1.33,0,0,1,143.17,461.72Z" style="fill:#263238"></path><path d="M186.7,463.62a1.49,1.49,0,0,1,0-.37c0-.27-.05-.63-.09-1.09l-.29-4.21c-.12-1.82-.27-4.06-.35-6.66s-.27-5.55-.29-8.82-.14-6.86-.09-10.71c0-1.92,0-3.91,0-6s.09-4.16.14-6.32c.25-8.65.7-18.15,1.4-28.11,1.4-19.93,3.18-37.92,4.32-50.95.56-6.5,1-11.76,1.34-15.44.15-1.79.28-3.2.36-4.19.05-.46.08-.82.11-1.09s.05-.37.05-.37a1.7,1.7,0,0,1,0,.37l-.05,1.1c-.07,1-.16,2.4-.27,4.2-.23,3.65-.64,8.93-1.17,15.45-1.05,13-2.77,31-4.17,50.95-.7,10-1.16,19.45-1.44,28.09,0,2.16-.11,4.27-.16,6.32s0,4-.07,6c-.06,3.84,0,7.42,0,10.69s.15,6.23.21,8.82.17,4.84.26,6.66.15,3.22.2,4.21l0,1.1A1.75,1.75,0,0,1,186.7,463.62Z" style="fill:#263238"></path><path d="M194.06,365.1c-.05-.05.51-.28,1.13.25a1.48,1.48,0,0,1,.49,1.27,1.49,1.49,0,0,1-2.73.45,1.47,1.47,0,0,1,.05-1.35c.41-.71,1-.67,1-.6s-.43.17-.66.76a1.18,1.18,0,0,0,0,1,1.06,1.06,0,0,0,1.84-.31,1.2,1.2,0,0,0-.28-.93C194.52,365.13,194.06,365.19,194.06,365.1Z" style="fill:#263238"></path><path d="M191.25,410c-.05-.05.52-.29,1.14.25a1.47,1.47,0,0,1,.48,1.26,1.4,1.4,0,0,1-1.21,1.15,1.43,1.43,0,0,1-1.52-.69,1.51,1.51,0,0,1,.06-1.36c.41-.71,1-.66,1-.6s-.43.18-.66.76a1.14,1.14,0,0,0,0,1,1,1,0,0,0,1.83-.31,1.14,1.14,0,0,0-.28-.92C191.72,410,191.25,410.07,191.25,410Z" style="fill:#263238"></path><path d="M263,440.85a6.62,6.62,0,0,1-1.34-.17,18.31,18.31,0,0,1-3.52-1.13,19.68,19.68,0,0,1-9-8.05,31.11,31.11,0,0,1-2.49-6.23,18.5,18.5,0,0,0-2.21-4.9,9.13,9.13,0,0,0-2.54-2.54c-.73-.45-1.19-.6-1.17-.65a1.12,1.12,0,0,1,.34.08,5.44,5.44,0,0,1,.93.4,8.4,8.4,0,0,1,2.74,2.5,18.18,18.18,0,0,1,2.37,5,32,32,0,0,0,2.48,6.12,20.08,20.08,0,0,0,8.71,8A31.8,31.8,0,0,0,263,440.85Z" style="fill:#fafafa"></path></g></svg>